/* XPM */
static char *fa0396e8f73e44aba8adc61607d9c687SmyDFVZzzGPuNRNU[] = {
/* columns rows colors chars-per-pixel */
"50 50 197 2 ",
"   c gray17",
".  c #414141",
"X  c #393939",
"o  c #2D2D2D",
"O  c #3C3C3C",
"+  c #2C2C2C",
"@  c #2A2A2A",
"#  c gray20",
"$  c gray18",
"%  c gray16",
"&  c #323232",
"*  c gray19",
"=  c #2F2F2F",
"-  c gray24",
";  c #656565",
":  c gray22",
">  c #343434",
",  c #353535",
"<  c #313131",
"1  c #646464",
"2  c #40403F",
"3  c #2E2F2E",
"4  c #606060",
"5  c #5E5E5D",
"6  c #3A3A3A",
"7  c #3E3E3E",
"8  c #474746",
"9  c #3A3A38",
"0  c gray23",
"q  c #2B2B2A",
"w  c #373735",
"e  c #2F2F2E",
"r  c gray34",
"t  c gray21",
"y  c #2E2E2D",
"u  c #393938",
"i  c #4A4A49",
"p  c #282828",
"a  c #343432",
"s  c #343433",
"d  c #565655",
"f  c #5E5F5C",
"g  c #2C2C2B",
"h  c #333332",
"j  c #6D6D6D",
"k  c #353534",
"l  c #2A2A29",
"z  c #2F302F",
"x  c #2A2B2A",
"c  c #373737",
"v  c #333331",
"b  c #4B4B4B",
"n  c #292928",
"m  c #2C2D2A",
"M  c #343533",
"N  c #2A2B29",
"B  c #434441",
"V  c #5B5B5A",
"C  c #3A3B38",
"Z  c #323230",
"A  c #3D3D3B",
"S  c #30302F",
"D  c #2D2D2C",
"F  c #353635",
"G  c #868686",
"H  c #414241",
"J  c #5E5E5C",
"K  c #656563",
"L  c gray25",
"P  c #3C3D3A",
"I  c #414140",
"U  c #323330",
"Y  c #353533",
"T  c #313130",
"R  c #2F2F2D",
"E  c #A9A9A7",
"W  c #404140",
"Q  c gray26",
"!  c #5B5B5B",
"~  c #5D5D5D",
"^  c #2E2E2C",
"/  c #31312F",
"(  c #30302E",
")  c #323231",
"_  c #434343",
"`  c #373736",
"'  c #818280",
"]  c #3D3D3C",
"[  c #505050",
"{  c gray30",
"}  c #767674",
"|  c #565755",
" . c #3E3E3C",
".. c #323331",
"X. c gray36",
"o. c #3A3A39",
"O. c #313230",
"+. c #3B3B39",
"@. c #454544",
"#. c #40403E",
"$. c #333433",
"%. c #494948",
"&. c #3B3B3A",
"*. c gray28",
"=. c #3E3E3D",
"-. c #717270",
";. c #3F3F3D",
":. c gray29",
">. c #4B4B49",
",. c #71716F",
"<. c #797A78",
"1. c #484847",
"2. c #444443",
"3. c #515150",
"4. c #363735",
"5. c #2C2C2A",
"6. c #2D2E2B",
"7. c #2B2B29",
"8. c #535351",
"9. c #4D4D4B",
"0. c #454644",
"q. c gray53",
"w. c #41423F",
"e. c #50514E",
"r. c #434341",
"t. c #464646",
"y. c #2D2C2E",
"u. c #2B2B2C",
"i. c #545452",
"p. c #3F3F3F",
"a. c #676767",
"s. c #2D2D2B",
"d. c #434342",
"f. c #444444",
"g. c gray31",
"h. c #4E4E4E",
"j. c #484848",
"k. c #383937",
"l. c #424340",
"z. c #31322F",
"x. c #313231",
"c. c #515151",
"v. c #363634",
"b. c #363635",
"n. c #3B3C3A",
"m. c #2A2A28",
"M. c #333431",
"N. c #6B6B69",
"B. c #474845",
"V. c #3F3F3E",
"C. c #555555",
"Z. c #2C2D2B",
"A. c #949492",
"S. c #383837",
"D. c #353634",
"F. c #3C3C3B",
"G. c #525251",
"H. c #4F504D",
"J. c #949592",
"K. c #666664",
"L. c #535352",
"P. c #3B3B38",
"I. c #4F4F4E",
"U. c #3D3E3C",
"Y. c #51514F",
"T. c #393A38",
"R. c #31312E",
"E. c #4C4C4C",
"W. c #30312F",
"Q. c #333432",
"!. c #3E3F3E",
"~. c #5D5D5C",
"^. c gray27",
"/. c #8B8C8A",
"(. c #2F302E",
"). c #626260",
"_. c #696A67",
"`. c #565656",
"'. c #353435",
"]. c #3A3B39",
"[. c #282827",
"{. c #3E3F3D",
"}. c #5F605D",
"|. c #6A6B69",
" X c #686966",
".X c #8D8D89",
"XX c #61625F",
"oX c #2B2C2B",
"OX c #3F403E",
"+X c #8C8C8B",
"@X c #2D2D2E",
"#X c #4C4D4A",
"$X c #464644",
"%X c #4A4B49",
"&X c #292A29",
"*X c #292927",
"=X c #464745",
/* pixels */
"  . X   o O + + O   @ # $ % & * % * &   = - @ $ ; : + # + % # $ % & * @ * & % = # @ o >     > o @ , ",
"< 1 > = $ > 2 3 > 4 $ = $ $ , & $ = # 5 * = $ * 6 > $ = $ $ = o $ $ $ - $ = $ = $ o $ = $ $ = = $ = ",
"7 > @ & * o 8 9   # 0 > $ #   + # o q w e % # * % < < % = & % * X @ + # + @ # o % & = + : & % * & % ",
"@ = # @ o & + + # o r X $ @ < * @ * < @ = &   $ 0     & o   & $   > * @ * > @ = &   $ #   + & +   # ",
"  $ & + X & o o * $ + * $ o * * o = = t = * o $ = + o * y + * < u i = + = * o = * o $ * o o * o o * ",
"> $ % & * % < & $ * # @ = # + o > + @ > = % # * % < < p a s % = d f & > + @ # o @ & = % & >   & # % ",
"+ = < + $ * o o X o + < $ o * = + * * g = < + $ < o o * # e * $ $ h = + * * + = < + = < o * # o + < ",
"  = X   o < + o # o @ < X   < = @ j k l e : o $ < + + & o   & $   < z x * < @ = & q c <   + > u + # ",
"# $   & * % < & % * # @ < # + o # v l > $ % b & n < < % * # % o > @ m M +   # $ N B < % < & V C t # ",
"o $ * o = O $ $ * $ o * $ + = $ o = e + $ * : Z A o o < $ o * $ $ * S k < = + = * D $ * o # F 3 # G ",
"  = # @ o > H 6 # +   # $ % < * @ < < @ - # = J K     # - L # $ @ & < @ < # % * # @ $ #     # , + , ",
"# $ @ & = % P I % = : @ y U   + # o   # $ @ O < D L < @ Y A @ $ # o + # +   # $ @ & = % < < % * # @ ",
"* $ o = $ o * = T $ = o * F $ $ = o o = = $ * * $ = = o e 3 o $ = $ $ = $ $ # < o = $ D R = $ = = o ",
"% = # @ o # o e E W @ Q = @ & * % < L * * > @ o >     # o % # $ % & < % < < @ ! O @ $ k a q # + @ > ",
"* i C * = + = # - # < ~ o & $ 7 * o : t $   * = + = * + $ < o ^ / o o < o + * ( y * = + = * + = 6 + ",
"* ) S * = 0 = * + c _ = , * $ o T o + * = + * = : = * + = * + s ` o o * o + & ' ] , = + * * + = < + ",
"% = # % o #     . & : # * L , / Z * & % = # , $ > +   > o   [ { % # < % < < @ X t @ o #     # o @ # ",
"= $ + * = , = = o $ < + e } : o * o o * $ o * c $ = * o $ c $ * = o D ( $ , > y m |  .o = = + : = + ",
"& # @ < * @ < & @ * &   h u + + & + + & $ @ & < + * < @ = #   $ & + D ..o + # y l ] = $ : & @ < & @ ",
"@ X.: @ o # + + # #   : 6   & * % * , > = > @ o #   + # + @ # = % & * @ < & % X #   o #   + > o @ # ",
"= * + = $ o $ o.O.s $ +.@.O $ $ * $ b L $ o = $ $ $ * $ $ = $ $ = o - = $ o = $ $ = = $ #.> o = = o ",
"> = = , = % $.< %.&.] l o #   + >   @ # $ % # * n *.` @ * # % $ > @ + > +   > $ : t * =.-._ + * # % ",
"@ = & @ $ # ;.` :.= = & = 6 > - % * < @ = # @ o v >.,.h o % # $ % < * @ < & % < # @ $ _ $ $ # o   & ",
"o = & o $ Q X F * , = S ( <.1.* o = * + = = + $ T o.2.= +.y * = $ * $ o = = D y = + R 3.o # * o + * ",
"# $ % & * % < # p * # n ^ 4.5.  # +   # = % # * + c & % R h % $ #     > = + # 6.) & 9 7.< # % = >   ",
"+ * < + * O $ o & , + < = + 6 c , = * o < < + $ < o o < o + < o + * * + t t $ e )   8.w $ o * 0 u 9.",
"  = & 0.q.> &.g & o + & =   * =   < c   = <   $ & + o < o   < o   < * u w.3.  = < : e.s c + < o o ) ",
"# $ @ r.;.+ Y Z % < t.@ $ #     # = o # $ % # = % * &   0 > % $ # @ + o.9 ^ # y.u.& i.q > & % * & % ",
"o = * c = * o o * $ *.p.$ $ = = o a.T s.$ < o t * $ $ * o o * < & * = + e < o O 7 o > = o o = o o * ",
"% = # @ o >     , + % > y n < * % > d.e = # @ f.g.)   # o @ # $   & < % < & @ 0 h.@ j.s x + # + @ # ",
"# * @ < = @ * < % * # @ k.l.  + & + @ # $ % # 0 $ z.x.: * & @ $ #   $ : ,   # = @ # * 7.z.t @ * # @ ",
"= $ $ = = $ $ , $ = * = c.e = $ t = $ < t $ < $ $ $ = $ $ = = $ = $ t * $ * * * t = $ = $ S $ = = $ ",
"@ $ c o o #     > + @ > = , & = + X > % # > @ y s     > + % # $ % & , p c v.1.b.# @ $ >     # = % > ",
"& = h.: =   * < @ = & , = # o $ & + + & $   & n.m.* < o = & @ t & D 3 & S M.N.v @ < *   * < @ * < @ ",
"< = + - =   $ * + < * o $ * o o < X + : < o * & o : <   = * + = O.B.` * $ + ) $ + * 6 g w T + = < + ",
"% = # @ o #     > * $ V.< , C.* > h & 6 z 7 @ o .   $ # + @ # = Z.A.! + S.& , = # @ $ D.v + , o @ > ",
"* # o = = + > = X , F.w G.# X 2 H.o #.J.K.D ( e + = = < = * + $ 6 t * L.P.o * $ + * = + = * + * * + ",
"# > @ Z I.@ # t * S ..  e 6 + X & o g ` o.+ ) S @ * < < t g.+ = & , D U./ + & = @ < = @ * *   * &   ",
"@ $ # 7.Y.> c + # 5.s.t $ + Q 1 @ < : @ * p.  > #     # = c T.= % > k.m.& X % * # @ $ X   < # D & # ",
"= , $ $ < o O.u = $ = = = $ $ & $ $ o $ $ $ < < $ $ = $ $ e R.^ $ $ $ = = * = = $ = ^ h E.< 3 R e $ ",
"7 c.% & ; @ n.Z p X , @ $ - + o 0 + > O * % # * % < : 0 W.Q.) e > @ $ O o # # * % & !.+ f.< ~.$.k e ",
"  = &   o &  .L., ^.+ & # - # <   * < @ = # @ o #   & L m s.. t   > & @ * & @ = & @ * >   o # & v./.",
"o $ 0 o $ * (.).L :.o z B._.Q.< o * = o = = 5.T * . t * $ o * `.X t < o = = o $ = o $ * o $ * , o '.",
"# $ % & : @ ].) % * 6 T M k q + > # @ # = [.v c % & # ]./ {.% * #   + > + @ > c % & = p O & n T # @ ",
"O = < + $ : & + & $ = * = + * < + # * o = <   t X o o M.P }.o.$   < * $ * &   , O = = < + > s ^ + < ",
"@ : <   o o.s D & &   & =   * =   = < & (.|.= , c.+ Z. X.XXXb.t   & W.k * < @ = <   = < + & & $   # ",
"> * @ & * s w , @ & >   * 6     > = @ h e oX# *   7 T h 2 k x = >   Z.s + @ # $ % 7 = % < > o * 1 @ ",
"o $ & * OX+X0 @X* c , * 6 + = $ o = S Z > = o $ < o $ - y o : o + * c.: * = + = * o = = $ #X$Xo > * ",
", * %X9 h 9 y g O o @ > = % < S m.* < l = # % > > $ + # o @ > e &X& , c < T *X* # @ c &   y s o @ # ",
"# 7 n ..( l / ..% = # @ $ >   Z.r.o @ L o % # * @ < &   c > > D.=X@   # o q Q.o % & = @ < < % & # % "
};
