/* XPM */
static char *d18aedff42614558b64cddedcfd084c05nBWwE4W4NeuvG7N[] = {
/* columns rows colors chars-per-pixel */
"50 50 41 1 ",
"  c #05263B",
". c #117ABE",
"X c #0A4164",
"o c #128CD5",
"O c #1381C2",
"+ c #0B7CBC",
"@ c #1492DC",
"# c #055888",
"$ c #0975B9",
"% c #0E78BC",
"& c #0979BD",
"* c #0673B6",
"= c #0F7ABE",
"- c #0877BB",
"; c #107ABE",
": c #0A76BA",
"> c #0F78BC",
", c #0D77BA",
"< c #118BD4",
"1 c #0E78BB",
"2 c #0570B2",
"3 c #0F79BC",
"4 c #0673B7",
"5 c #0C7CC1",
"6 c #1179BD",
"7 c #137ABF",
"8 c #1279BE",
"9 c #0979BE",
"0 c #127ABF",
"q c #0E7FC4",
"w c #127DBF",
"e c #128ED6",
"r c #0B7CC1",
"t c #0F7EC3",
"y c #0471B4",
"u c #0D7FC4",
"i c #0E79BD",
"p c #0572B5",
"a c #1694DE",
"s c #0C7FC5",
"d c #0A7ABF",
/* pixels */
"                                                  ",
"                                                  ",
"     .XXXXX XXXXXXXX  oOO++++++++@  ######XXXXX$  ",
"   %%XXXXXX XXXXXXXX  &OO++++++++@  #####XXXXXX$  ",
"   %%XXXXXX XXXXXXXX  &OO++++++++@  #####XXXXXX$  ",
"  .XXXXXXXX XXXXXXXX  *OO++++++++@  =XXXXXXXXXX$  ",
"  XXXXXXXXX XXXXXXXX  -OO++++++++@  XXXXXXXXX;;:  ",
"  XXXXXXXXX XXXXXXXX  -OO++++++++@  XXXXXXXXX;;:  ",
"  >>>>>>>>> >>>>>>>,  <@@@@@@@@@@<  ,>>>>>>>>>>>  ",
"                                                  ",
"                                                  ",
"  XXXX112,,XXXXXXXX34444444 %% ########55=   XXX  ",
"  XXXXXX >>XXXXXXXXXXXXXXXXXXX XXXXXXXXXXX   XXX  ",
"  XXXXXX >>XXXXXXXXXXXXXXXXXXX XXXXXXXXXXX   XXX  ",
"  XXXXXX >>XXXXXXXXXXXXXXXXXXX XXXXXXXXXXX:: XXX  ",
"  XXXXXX >>XXXXXXXXXXXXXXXXXXX XXXXXXXXXXX:: XXX  ",
"  $$$$XX >>XXXXXXXXXXXXXXXXXXX XXXXXXXXXXX;; XXX  ",
"                                             XXX  ",
"                                             XXX  ",
"  @  677777788                .XX>  OOO99999 XXX  ",
"  @  XXX0XX0XXXXXXXXXXX  XXXXXXXX>  O+++++++ ###  ",
"  @  XXX0XX0XXXXXXXXXXX  XXXXXXXX>  O+++++++ ###  ",
"  @  XXXXXXXXXXXXXXXXXX  XXXXXXXX>  O+++++++ ###  ",
"  @  XXXXXXXXXXXXXXXXXX  XXXXXXXX>  O+++++++ ###  ",
"  @  XXXXXXXXXXXXXXXXXX  XXXXXXXX>  O+++++++ ###  ",
"                         qqXXXXXX1  O+++++++      ",
"                         qqXXXXXX1  O+++++++      ",
"  XXXXXXXXX:##  @XXX###  qqwXXX..*  e@@@@@@@ rrr  ",
"  XXXXXXXXX;%%  @XXX###  XXt##X..*           yyy  ",
"  XXXXXXXXX;%%  @XXX###  XXt##X..*           yyy  ",
"  XXXXXXXXXXXX  @XXX###  XXXuuX..*  1XXXXXXXXXXX  ",
"                @XXX##X  XXXXXX..*  XXXXXXXXXXXX  ",
"                @XXX##X  XXXXXX..*  XXXXXXXXXXXX  ",
"  +++ #####XXX  @XXXXXX  rrrrri11p  ,>>>>>>>>>>>  ",
"  +++ XXXXXXXX  @XXX##X                           ",
"  +++ XXXXXXXX  @XXX##X                           ",
"  +++ ##XXXXXX  @XXXXXX  XXXXXXXX=55############  ",
"  +++ ##XXXXXX  @XXXXXX    XXXXXX###XXX#####XXX.  ",
"  +++ ##XXXXXX  @XXXXXX    XXXXXX###XXX#####XXX.  ",
"  +++ XXXXXXXX  @XXXXXX    XXXXXXXXXXXXXXXXXX%%   ",
"  +++ XXXXXXXX  @XXXXXX    XXXXXXXXXXXXXXXXXX%%   ",
"  +++ XXXXXXXX  @XXXXXX    XXXXXXXXXXXXXXXXX.     ",
"  +++ XXXXXXXX                                    ",
"  +++ XXXXXXXX                                    ",
"   ++ ##XXXXXX  >::      ::XXXXXX######  @+++aas  ",
"  d++ ###XXX##  >XXXXXXXXXXXXXXXXXXX###  @++++++  ",
"  d++ ###XXX##  >XXXXXXXXXXXXXXXXXXX###  @++++++  ",
"  #dd #####XXX  >XXXXXXXXXXXXXXXXXXX###  @++++++  ",
"                                                  ",
"                                                  "
};
