/* XPM */
static char *e54bc53491f0485fa1d8985c005d9d0cnRgOH6Uw0KulLy0C[] = {
/* columns rows colors chars-per-pixel */
"50 50 117 2 ",
"   c #292927",
".  c #2D2D2C",
"X  c #2F302F",
"o  c #30302F",
"O  c #323232",
"+  c #383937",
"@  c #3B3B3A",
"#  c #3F403E",
"$  c #6C571F",
"%  c #735C1E",
"&  c #4F4324",
"*  c #47402B",
"=  c #4B442F",
"-  c #524624",
";  c #564823",
":  c #5A4B25",
">  c #564A2B",
",  c #5A4D2C",
"<  c #40403F",
"1  c #6D5820",
"2  c #745E22",
"3  c #715E2A",
"4  c #434342",
"5  c #474845",
"6  c #484847",
"7  c #4B4B4B",
"8  c #4F504D",
"9  c #51514F",
"0  c #535353",
"q  c #5D5D5C",
"w  c #605741",
"e  c #5F605D",
"r  c #61625F",
"t  c #646463",
"y  c #696A67",
"u  c #6B6C6A",
"i  c #747472",
"p  c #797A78",
"a  c #957215",
"s  c #997516",
"d  c #A27C17",
"f  c #A67F18",
"g  c #896D20",
"h  c #91793A",
"j  c #A9831F",
"k  c #A28025",
"l  c #AA8525",
"z  c #AA8729",
"x  c #AB892C",
"c  c #B18A22",
"v  c #BA9328",
"b  c #AD8C35",
"n  c #AF8F3A",
"m  c #AF903D",
"M  c #BC9731",
"N  c #BE9936",
"B  c #B3923C",
"V  c #B9973A",
"C  c #BE9A38",
"Z  c #C09729",
"A  c #C49A2C",
"S  c #C29A30",
"D  c #CDA332",
"F  c #CFA73A",
"G  c #D0A93E",
"H  c #AA8E45",
"J  c #AD934F",
"K  c #B39444",
"L  c #C09E41",
"P  c #C2A148",
"I  c #C8A649",
"U  c #D2AC46",
"Y  c #D3AE4A",
"T  c #D4B04E",
"R  c #C5A652",
"E  c #CBAB56",
"W  c #C7A95A",
"Q  c #CCAE5B",
"!  c #D0AF54",
"~  c #D6B355",
"^  c #D7B55A",
"/  c #D8B75E",
"(  c #D8B85F",
")  c #C8AC60",
"_  c #CAAF68",
"`  c #CEB060",
"'  c #CBB16B",
"]  c #D4B664",
"[  c #DABA64",
"{  c #DCBE6E",
"}  c #CCB370",
"|  c #CEB778",
" . c #CEB778",
".. c #CFB87B",
"X. c #D8BD74",
"o. c #DEC276",
"O. c #DFC37A",
"+. c #DFC47A",
"@. c #DFC47A",
"#. c #E0C67E",
"$. c #818280",
"%. c #868686",
"&. c gray53",
"*. c #8C8C8A",
"=. c #949592",
"-. c #A9A9A7",
";. c #D0BB80",
":. c #E2C986",
">. c #E3CB8A",
",. c #E4CC8E",
"<. c #E5CE92",
"1. c #E6D096",
"2. c #E8D49E",
"3. c #EBD9AA",
"4. c #ECDBAE",
"5. c #EBD9AA",
"6. c #EEDFB6",
/* pixels */
". 4 + . . @ . . @ . . O . . O O . O O . . @ . . t + . O . . O . . O O . O O . . O . . O . . O . . O ",
"O t O . . O < . O t . . . . O O . . O q O . . O + O . . . . . . . . . @ . . . . . . . . . . . . . . ",
"@ O . O O . 5 + . O + O . O . . O . . O . . O O . O O . . O . O + . . O . . O . . O . . + O . O O . ",
". . O . . O . . O . 0 + . . O O . O O . . O . . + . . O . . O . . O O . O O . . O . . O . . O . . O ",
". . O . + O . . O . . O . . O O . . . O . O . . . . . O . . O O + 7 . . . O . . O . . O . . O . . O ",
"O . . O O . O O . O O . . O . . O . . O . . O O . O O . O O . . 0 q O O . . O . . O . . O O . O O . ",
". . O . . O . . + . . O . . O . . O O . . O . . O . . O O . O . . O . . O O . . O . . O . O O . . O ",
". . + . . O . . O . . O + . O . . u O . . + . . O . . O . . O . . O X . O O . . O . O O . . O + . O ",
"O . . O O . O O . O O . O O . . O O . O . . 7 O . O O . o O . . O . . O . . O . . 4 O . O O q + O O ",
". . O . . @ . . O . . O . . . . . . . . . O + O @ . . O . . X . . O o O O . . . O . . O . O O . O &.",
". . O . . O 4 + O . . O . . O O . O O . @ O . q t . . O @ 4 O . . O O . O O . O O . . O . . O O . O ",
"O . . O . . @ 4 . . + . . O . . O . . O . . @ O . 4 O . O @ . . O . . O . . O . . O . . O O . O O . ",
"O . . . . . O . O . . . O O . . . . . . . $ 1 1 $ $ $ $ $ - . . . . . . . . O O . . . . . . . . . . ",
". . O . . O . . -.4 . 4 . . O O . O 4 O O a a a a a a a a % O . . O O . O O . q @ . . O O . O . . O ",
"O 7 + O . . . O @ O O q . O . @ O . + , d D U { o.a l Y { R a - o . . O . . O o . O . . . O . . + . ",
"O O o O . + . O . O 4 . O O . . O . & 3 c D G ^ ( n B C [ E b 3 = . . O . . O $.@ O . . O O . . O . ",
". . O . . O . . 4 O + O O 4 O o : % v S G j j c j T ! ) x V ^ Q H % * . O O . + O . . O . . O . . O ",
". . . O . O . . . . O . . i + . % a D D G a s d s D T :.a l Y { W a - o . O O . . 0 @ . . . . + . . ",
"O O . O O . O O . O O . O + . . % a D A j D U { ~ a x ~ <._ a P P a - O . . O . . @ . . + O . O O . ",
". q + . . O . . O O . + + . O - g j D Z f D G ^ ^ a x ~ <._ a L I x 3 ; O O . + O . . O . . O . . O ",
". O . . . . . + O O . + 5 @ . a v D D v a D D D [ a x ~ <._ a M Y [ x a . . . . . . . . < O . . . . ",
"O . . O . . O O 7 + @ . . O . a v D a j D D D D D 2.} a 3.| a M T { b a . . O . + O O @ i 4 . O O . ",
". . O . . O # O 7 . . O . + O a v D a j D D D D D 1.' a 1.' a M T { b a O O . O O . . 4 . . O . . O ",
". . O . . 4 + O O O . o o p 6 a v D a j D D D D D :.) a { R a M T { b a . . . . . . . 0 . O O . . O ",
"O . . O O . O O . O O . . O . a v D a j D D D D D { R a o.W a M ~ o.b a . . O . O O + . O O . . O . ",
". O O . O @ . . O O . O . . + a v D a j D D D D D ^ L a #.W a M ~ #.n a O O . . O . 0 O . . O + + 7 ",
". . O 5 &.O + . O . . O . . O a v D a j D D D D D Y C a :.) a M ~ :.n a < 0 . . O + 9 O O . O . . O ",
"O . . 4 @ . O O . O 5 . . O . a v D a j D D D D D Y C a 4...a M ^ ,.m a + . O . . O 0 . O O . O O . ",
". . O O . O . . O . 5 @ . . . a v D D v a D D D +.a l G 6.;.a M / 2.K a . O . @ @ . O . . . . . . O ",
". . O . . O . . O . . O . . O % k v D v a D D F +.a z ~ 3.| a N ! } h $ O O . + 7 . 7 O . . O . . O ",
"O O . O . . O O . O O . + 4 . . % a D v a D F Y O.a b +.<._ a L L a - + O . O . . O O . o O . O O . ",
". . . . . . . O . . O . 0 . . . 2 a D A v j l l b P Q >.B B M ] W a > O . O O O O . . . . o . . . . ",
". . O . . O . . O . . O . O O . : 2 v Z D j j j z +.X._ x V T ` J % = . O O 6 O O . . O . . O . . O ",
"O . 7 + . . O O . . O O . O . . O . a j D D D D ~ 3.| a ~ / { b % . . O o O u O . O O . O O . O O . ",
"O . . @ o . . O . O O . . O . . O + & 3 j D F Y / K K C { Q b 3 * 5 O O . . O . . O + . O O . . O . ",
". . O . . O . . O O . @ O O 0 O O O O , a D G ~ [ a l Y #.W a - . =.q . + O O . O . . O O . O . . O ",
"O O . . . . O . + O @ O 0 O + < 8 . < =.t a a a a a a a a % . . + O O 0 + . O . . O . . . O . O O . ",
"O O . O 7 . O O O o O . . + . + O . . O + ; : : ; : : : , w . . O O . @ o . O . . O . . O O . O O . ",
". . O . 9 O O . O . . O . . 4 t . O + . O @ . O O . . O . O + . . O + . O + . O O . . + . O O . O O ",
". O . . O . O + O . X . . . . O . . . . . . O O . . . . . . o . . . . . . O . . . . . O 7 O . . . . ",
"@ 0 . O t . @ O . + O . . @ . . + . O @ O . O O . O + + o O O . O . . @ . O O O . O @ . 5 O q O O . ",
". . O . . O @ 0 O 5 . O O @ O O . O O . . O . . O . O 4 . . 4 O . O O . O O . . O . O O . . O O O *.",
". . + . . O o t 4 7 . X 5 y O O . O . . . . . O O 4 O O . . O 0 + O O . . . . . . . . O . . O O . O ",
"O . . O + . @ O . O + O O O . . O O . O .   O O . O O + o @ . O O . . O . . O O . O . . @ O . O O . ",
"@ . O . . + O . O . . O . . O O . O O . . O . O + . . O @ r + . . O O . O O . O @ . . O . O O . . O ",
". + O . . + O . O O . O . . O . . . O O X u . O 0 . . y *.r O O . O o O O O . . O . . O . O O . . O ",
"O O . O O O O O . O O . O + . . O . . O . . O O . @ O O < O . . O . . O . . O . . @ . . O O . O t . ",
". . O O # *.+ . O O O O + . . . . . o O O . . . O . . @ . . + . . O 0 + O . . . O . . . . 7 5 . O O ",
"O O 7 + O + . . @ . . O . . O o . O O . . O . O O . . O . . O . . O O O O O   O O . O O . . O . . O ",
"O @ . O o . o O . . O . . O . . 4 . . 4 . . O o . O O . O O O O 5 . . O . . O . . O . . O O . O O . "
};
