/* XPM */
static char *_1a19a9cf3a64b40e2d5dde38f7756a6DZqgRBTqLqhmlQcD[] = {
/* columns rows colors chars-per-pixel */
"50 50 117 2 ",
"   c #14182E",
".  c #1D192F",
"X  c #171A30",
"o  c #1A1E34",
"O  c #251B31",
"+  c #1C2036",
"@  c #1F2338",
"#  c #292927",
"$  c #2C2C2C",
"%  c #2F302F",
"&  c #30302F",
"*  c #22263C",
"=  c #24283E",
"-  c #32293F",
";  c #323232",
":  c #3B3B3A",
">  c #69243B",
",  c #3F403E",
"<  c #40403F",
"1  c #2B2E43",
"2  c #2C3047",
"3  c #35384E",
"4  c #303552",
"5  c #363A52",
"6  c #3A3E54",
"7  c #3C4056",
"8  c #434343",
"9  c #4B4C4B",
"0  c #51514F",
"q  c #414457",
"w  c #40445C",
"e  c #44485F",
"r  c #535353",
"t  c #5D5D5C",
"y  c #43486A",
"u  c #514B62",
"i  c #4C5068",
"p  c #505365",
"a  c #52566D",
"s  c #585B6C",
"d  c #535770",
"f  c #575B72",
"g  c #5B5F77",
"h  c #5B5F78",
"j  c #5C6078",
"k  c #636363",
"l  c #686966",
"z  c #717270",
"x  c #AD2E45",
"c  c #AE3148",
"v  c #B13C52",
"b  c #BE697B",
"n  c #555C81",
"m  c #5D6382",
"M  c #636780",
"N  c #646880",
"B  c #6B6E81",
"V  c #656A8C",
"C  c #6E7182",
"Z  c #6E738E",
"A  c #76798A",
"S  c #686F99",
"D  c #6F759E",
"F  c #737791",
"G  c #747891",
"H  c #7B7F99",
"J  c #787FA3",
"K  c #977689",
"L  c #7E808F",
"P  c #7D8091",
"I  c #7C82A7",
"U  c #858584",
"Y  c #8C8C8B",
"T  c #848694",
"R  c #8B8E9C",
"E  c #8387A1",
"W  c #8488A2",
"Q  c #8B8FA9",
"!  c #8E91A2",
"~  c #9698A5",
"^  c #9B9DAA",
"/  c #9195B4",
"(  c #969AB9",
")  c #9A9FBA",
"_  c #BB92A5",
"`  c #9DA0B2",
"'  c #9EA2BD",
"]  c #A9A9A7",
"[  c #A7A8B4",
"{  c #A4A7B9",
"}  c #ABADBE",
"|  c #B2B4BF",
" . c #C68696",
".. c #C28A9C",
"X. c #A3A7C2",
"o. c #A5A9C2",
"O. c #AAAEC5",
"+. c #ADB1C8",
"@. c #B2B4C2",
"#. c #B5B7CA",
"$. c #B7BACE",
"%. c #BDBFC9",
"&. c #BEC0D3",
"*. c #C4C7D7",
"=. c #C8CAD3",
"-. c #CBCDDB",
";. c #CDCFDD",
":. c #D0D2DF",
">. c #D2D3DF",
",. c #D2D4E0",
"<. c #D5D6E1",
"1. c #D5D6E2",
"2. c #D5D7E2",
"3. c #D8DAE4",
"4. c #D9DAE4",
"5. c #DDDEE7",
"6. c #DFE0E8",
/* pixels */
"$ 8 : $ $ : $ $ : $ $ ; $ $ ; ; $ ; ; $ $ : $ $ k : $ ; $ $ ; $ $ ; ; $ ; ; $ $ ; $ $ ; $ $ ; $ $ ; ",
"; k ; $ $ ; < $ ; k $ $ $ $ ; ; $ $ ; t ; $ $ ; : ; $ $ $ $ $ $ $ $ $ : $ $ $ $ $ $ $ $ $ $ $ $ $ $ ",
": ; $ ; ; $ 8 : $ ; : ; $ ; $ $ ; $ $ ; $ $ ; ; $ ; ; $ $ ; $ ; : $ $ ; $ $ ; $ $ ; $ $ : ; $ ; ; $ ",
"$ $ ; $ $ ; $ $ ; $ r : $ $ ; ; $ ; ; $ $ ; $ $ : $ $ ; $ $ ; $ $ ; ; $ ; ; $ $ ; $ $ ; $ $ ; $ $ ; ",
"$ $ ; $ : ; $ $ ; $ $ ; $ $ ; ; $ $ $ ; $ ; $ $ $ $ $ ; $ $ ; ; : 9 $ $ $ ; $ $ ; $ $ ; $ $ ; $ $ ; ",
"; $ $ ; ; $ ; ; $ ; ; $ $ ; $ $ ; $ $ ; $ $ ; ; $ ; ; $ ; ; $ $ r t ; ; $ $ ; $ $ ; $ $ ; ; $ ; ; $ ",
"$ $ ; $ $ ; $ $ : $ $ ; $ $ ; $ $                                 ; $ $ ; ; $ $ ; $ $ ; $ ; ; $ $ ; ",
"$ $ : $ $ ; $ $ ; $ $ ; : $ ; $ $                                 ; % $ ; ; $ $ ; $ ; ; $ $ ; : $ ; ",
"; $ $ ; ; $ ; ; $ ; ; $ ; ; $ $ ; = = = 1 1 1 1 1 1 1 1 1 1 1 = = $ $ ; $ $ ; $ $ 8 ; $ ; ; t : ; ; ",
"$ $ ; $ $ : $ $ ; $ $ ; $ $ $     G E E | | | | | | | | | | ` E E w     ; $ $ $ ; $ $ ; $ ; ; $ ; U ",
"$ $ ; $ $ ; 8 : ; $ $ ; $ $ ;     Q X.X.6.6.6.6.5.6.6.6.6.6.*.X.X.e     ; ; $ ; ; $ $ ; $ $ ; ; $ ; ",
"; $ $ ; $ $ : 8 $ $ : $ $ ; 5 d a O.&.&.6.6.6.6.6.6.6.6.6.6.:.&.&.G d i = $ ; $ $ ; $ $ ; ; $ ; ; $ ",
"; $ $ $ $ $ ; $ ; $ $ $     e X.X.<.6.6.6.6.6.6.6.6.6.6.6.6.6.6.6.$.X.E =     ; $ $ $ $ $ $ $ $ $ $ ",
"$ $ ; $ $ ; $ $ ] 8 $ 8     e X.X.<.6.6.6.6.6.6.6.6.6.6.6.6.6.6.6.$.X.E =     t : $ $ ; ; $ ; $ $ ; ",
"; 9 : ; $ $ $ ; : ; ; t     e X.X.<.6.6.6.6.6.6.6.6.6.6.6.6.6.6.6.$.X.E =     & $ ; $ $ $ ; $ $ : $ ",
"; ; & ; $ : $ ; $ ; 8 $     e X.X.<.6.6.6.6.6.6.6.6.6.6.6.6.6.6.6.$.X.E =     U : ; $ $ ; ; $ $ ; $ ",
"$ $ ; $ $ ; $ $ 8 ; : ;     w ( ( *.:.:.6.6.6.6.6.6.6.6.6.6.4.:.:.O.( H =     : ; $ $ ; $ $ ; $ $ ; ",
"$ $ $ ; $ ; $ $ $ $ ; $     4 S S ) X.X.6.6.6.6.6.6.6.6.6.6.*.X.X.I S n @     $ $ r : $ $ $ $ : $ $ ",
"; ; $ ; ; $ ; ; $ ; ; $     4 S S ) X.X.6.6.6.6.6.6.6.6.6.6.*.X.X.I S n @     $ $ : $ $ : ; $ ; ; $ ",
"$ t : $ $ ; $ $ ; ; $ :     6 I I G G G -.-.:.6.6.6.6.6.;.-.{ G G J I V =     : ; $ $ ; $ $ ; $ $ ; ",
"$ ; $ $ $ $ $ : ; ; $ :     e X.X.2     X.X.$.6.6.6.6.6.O.X.M     G X.E =     $ $ $ $ $ < ; $ $ $ $ ",
"; $ $ ; $ $ ; ; 9 : : $     e X.X.2     X.X.$.6.6.6.6.6.O.X.M     G X.E =     $ : ; ; : z 8 $ ; ; $ ",
"$ $ ; $ $ ; : ; 9 $ $ ;     e X.X.2     2 2 f +.+.+.+.+.6 2 =     G X.E =     ; ; $ $ 8 $ $ ; $ $ ; ",
"$ $ ; $ $ 8 : ; ; ; $ &     e X.X.2         e X.X.X.X.X.=         G X.E =     $ $ $ $ r $ ; ; $ $ ; ",
"; $ $ ; ; $ ; ; $ ; ; $     e X.X.2     O O u O.O.O.O.O.- O .     G X.E =     $ ; ; : $ ; ; $ $ ; $ ",
"$ ; ; $ ; : $ $ ; ; $ ;     e X.X.2     x x b 6.6.6.6.6.c x >     G X.E =     $ ; $ r ; $ $ ; : : 9 ",
"$ $ ; 8 U ; : $ ; $ $ ;     e X.X.2     x x b 6.6.6.6.6.v x >     F X.E =     $ ; : 0 ; ; $ ; $ $ ; ",
"; $ $ 8 : $ ; ; $ ; 8 $     5 j g a j g  . ._ o.o.o.o.o... .K j j h j a =   ; $ $ ; r $ ; ; $ ; ; $ ",
"$ $ ; ; $ ; $ $ ; $ 8 : $ $ $     Q X.X.6.6.$.S S S S S :.6.*.X.X.e     $ ; $ : : $ ; $ $ $ $ $ $ ; ",
"$ $ ; $ $ ; $ $ ; $ $ ; $ $ ;     Q X.X.6.6.$.S S S S S :.6.*.X.X.e     ; ; $ : 9 $ 9 ; $ $ ; $ $ ; ",
"; ; $ ; $ $ ; ; $ ; ; $           @.:.:.q q C *.*.*.*.*.p q T :.:.a           $ $ ; ; $ & ; $ ; ; $ ",
"$ $ $ $ $ $ $ ; $ $ ; $           %.6.6.    s 6.6.6.6.6.1   C 6.6.s           ; ; $ $ $ $ & $ $ $ $ ",
"$ $ ; $ $ ; $ $ ; $ $ ;           %.6.6.    s 6.6.6.6.6.1   C 6.6.s         * ; ; $ $ ; $ $ ; $ $ ; ",
"; $ 9 : $ $ ; ; $     1 6.6.6.6.6.3                               ^ 6.6.6.6.^     ; ; $ ; ; $ ; ; $ ",
"; $ $ : $ $ $ ; $     1 6.6.6.6.6.3                               ^ 6.6.6.6.^     ; : $ ; ; $ $ ; $ ",
"$ $ ; $ $ ; $   X C T R &.&.{ C C N N N T T C y y y y y P T A N N B C T #.&.} T L 6   ; ; $ ; $ $ ; ",
"; ; $ $ $ $ ;     ^ 6.4.X.X.G     Q X.X.6.6.$.S S S S S :.6.*.X.X.e   3 / X.$.6.=.q     $ ; $ ; ; $ ",
"; ; $ ; 9 $ ;     ^ 6.4.X.X.G     Q X.X.6.6.$.S S S S S :.6.*.X.X.e   3 / X.$.6.=.q     ; ; $ ; ; $ ",
"$ $ ; $ 0 ; ;     ^ 6.5.-.-.!     7 e e / / / / / / / / / / Z e e =   7 #.-.,.6.=.q     $ ; ; $ ; ; ",
"$ ; $ $ ; $ ;     ^ 6.6.6.6.^           S S I X.X.X.X.X.D S y         q =.6.6.6.=.q     9 ; $ $ $ $ ",
": r $ ; k $ :   X T [ [ [ [ A     5 7 7 J J J H H H H H J J m 7 7 =   3 ~ [ [ [ ^ 7     8 ; t ; ; $ ",
"$ $ ; $ $ ; : r ; = @ @ @ @ o     W ) ) X.X.F + + + + o / X.' ) ) w   X + @ @ @ @ $ ; ; $ $ ; ; ; Y ",
"$ $ : $ $ ; % k 8                 Q X.X.X.X.F           / X.X.X.X.e               $ $ ; $ $ ; ; $ ; ",
"; $ $ ; : $ : ; $ ;               g M M M M a           j M M M M 6             $ ; $ $ : ; $ ; ; $ ",
": $ ; $ $ : ; $ ; $ $ ; $ $ ; ; $             ; : $ $ ;           ; ; $ ; ; $ ; : $ $ ; $ ; ; $ $ ; ",
"$ : ; $ $ : ; $ ; ; $ ; $ $ ; $ $             ; r $ $ l           ; & ; ; ; $ $ ; $ $ ; $ ; ; $ $ ; ",
"; ; $ ; ; ; ; ; $ ; ; $ ; : $ $ ; $ $ ; $ $ ; ; $ : ; ; < ; $ $ ; $ $ ; $ $ ; $ $ : $ $ ; ; $ ; k $ ",
"$ $ ; ; , Y : $ ; ; ; ; : $ $ $ $ & & ; ; $ $ $ ; $ $ : $ $ : $ $ ; r : ; $ $ $ ; $ $ $ $ 9 8 $ ; ; ",
"; ; 9 : ; : $ $ : $ $ ; $ $ ; & $ ; ; $ $ ; $ ; ; $ $ ; $ $ ; $ $ ; ; ; ; ; # ; ; $ ; ; $ $ ; $ $ ; ",
"; : $ ; & $ & ; $ $ ; $ $ ; $ $ 8 $ $ 8 $ $ ; & $ ; ; $ ; ; ; ; 8 $ $ ; $ $ ; $ $ ; $ $ ; ; $ ; ; $ "
};
