/* XPM */
static char *_ec58cd0cbbc484bbcbb29905d4f73aaoBgfZVNtBmzLzH6X[] = {
/* columns rows colors chars-per-pixel */
"50 50 188 2 ",
"   c gray16",
".  c #202120",
"X  c #212223",
"o  c #262729",
"O  c #232426",
"+  c #303133",
"@  c #2D2E30",
"#  c #242527",
"$  c #292A2C",
"%  c #2F3032",
"&  c #2D2D2F",
"*  c #343537",
"=  c #323335",
"-  c #2A2A2C",
";  c #313234",
":  c #3A3B3D",
">  c #303135",
",  c #333438",
"<  c #38393C",
"1  c #3B3C40",
"2  c #3D3E41",
"3  c #363739",
"4  c #37383C",
"5  c #313237",
"6  c #36373B",
"7  c #232428",
"8  c #2B2C31",
"9  c #36373C",
"0  c #252728",
"q  c #242426",
"w  c #26272A",
"e  c #27282C",
"r  c #1A1A1C",
"t  c #222224",
"y  c #1D1D1F",
"u  c #1B1B1D",
"i  c #19191B",
"p  c #1E1E1E",
"a  c gray12",
"s  c gray10",
"d  c #1B1B1B",
"f  c gray9",
"g  c #141415",
"h  c #151617",
"j  c #151517",
"k  c #1E1F21",
"l  c #151618",
"z  c #1C1D1F",
"x  c #18191B",
"c  c #1E1E20",
"v  c #252628",
"b  c #1A1B1D",
"n  c #1F2023",
"m  c #222325",
"M  c #2B2D30",
"N  c #26282D",
"B  c #202124",
"V  c #2A2B2E",
"C  c #1D1E22",
"Z  c #28292D",
"A  c #2A2A2D",
"S  c #232527",
"D  c #1B1C1F",
"F  c #1C1D21",
"G  c #17181C",
"H  c #202024",
"J  c #151518",
"K  c #1C1C1F",
"L  c #161618",
"P  c #111112",
"I  c #0B0B0D",
"U  c #0A0A0C",
"Y  c #0D0D0F",
"T  c #0C0C0D",
"R  c gray6",
"E  c #0B0B0B",
"W  c #0C0C0C",
"Q  c gray3",
"!  c #131314",
"~  c #161617",
"^  c #171719",
"/  c #161719",
"(  c #1F1F21",
")  c #1F2022",
"_  c #1B1C1E",
"`  c #222327",
"'  c #1E1F23",
"]  c #232427",
"[  c #26282B",
"{  c #1D1F21",
"}  c #1E1F22",
"|  c #1E2121",
" . c #1D1E1F",
".. c #1C1D20",
"X. c #131317",
"o. c #131416",
"O. c #111213",
"+. c #131214",
"@. c #0C0C0E",
"#. c #0F0F11",
"$. c #121213",
"%. c #0A0A0B",
"&. c gray4",
"*. c #070707",
"=. c #191919",
"-. c #101011",
";. c gray7",
":. c #18181A",
">. c #191A1C",
",. c #1E2021",
"<. c #212224",
"1. c #212123",
"2. c #262628",
"3. c #28292B",
"4. c #252529",
"5. c #1D1D20",
"6. c #212325",
"7. c #202224",
"8. c #151619",
"9. c #18181B",
"0. c #16161A",
"q. c #111113",
"w. c #121315",
"e. c #111012",
"r. c #0E0E0E",
"t. c #060606",
"y. c #101010",
"u. c #171718",
"i. c #141416",
"p. c #101012",
"a. c #27282A",
"s. c #28282A",
"d. c #17181A",
"f. c #131315",
"g. c #1C1C1E",
"h. c #16181A",
"j. c #151416",
"k. c #111111",
"l. c #090909",
"z. c #151515",
"x. c #121214",
"c. c #1D1E20",
"v. c #121215",
"b. c #18171B",
"n. c #1A1B1E",
"m. c #18191A",
"M. c #151516",
"N. c gray5",
"B. c #040404",
"V. c gray11",
"C. c #202022",
"Z. c #141517",
"A. c #1B1D1E",
"S. c #0E0F10",
"D. c #0B0B0C",
"F. c #09090B",
"G. c #0D0D0E",
"H. c #161718",
"J. c #1D1C20",
"K. c #1B1C1D",
"L. c #0E0E0F",
"P. c #0F0F10",
"I. c #080809",
"U. c gray2",
"Y. c #0C0D0F",
"T. c #101112",
"R. c #181819",
"E. c #1B1A1D",
"W. c #121313",
"Q. c #09090A",
"!. c #0E0E10",
"~. c #0F1010",
"^. c #0F1011",
"/. c gray8",
"(. c #070708",
"). c #0A0B0C",
"_. c #0E0F0F",
"`. c #1A1A1B",
"'. c #131414",
"]. c #19191A",
"[. c #020202",
"{. c #090B0A",
"}. c #131313",
"|. c gray1",
" X c #1D1D1E",
".X c #161616",
"XX c #010101",
"oX c black",
/* pixels */
"  . X o O + @ # $ @ $ % & * * = - ; : > , < 1 2 3 = + 4 5 4 6 7 8 9 0 q w e w r t y u i r p a s d f ",
"a g h r u r j k l k z x c v O b z x c o n m M N B # V C Z A S D F G l l H J K L P I U Y T R E W E Q ",
"s P P ! ~ c ^ L / / ( z ) t c _ O m v # z t S ` ' D ] [ { } |  ./ ..X.u o.O.^ ! +.@.#.$.%.&.E E Q *.",
"=.%.-.W ;.#.:.j b _ ( z z x b >.) x b ,.<.1.2.3.B 4.5.6.7.8.} x >.9.0.q.w.#.P R E -.e.$.U r.&.&.&.t.",
"=.y.$.P r.y.u.i.p.i :.L ^ t t a.u l ) z ) k _ k u s.d.b ) ( <.i f.g.h.j.j i.-.r.R $.E &.k.E W l.t.E ",
"f Q E y.W z.q.-.y.x.:.c.>.v.b.^ q w.d.q b r ..n.3.c.c d.x :.p.L x m.k.z.M.f.@.L ;.N.Q y.&.E l.t.B.Q ",
"V.Q N.N.N.W N.$.-.f C.i.~ L v.r <.r u _ c d.c.( g.Z._ :.u r A.S.#.i.$.z.~ M.R $.N.k.k.D.F.t.W *.*.Q ",
"f N.R k.r.;.E G.x.;.:.i.H.i J.) _ Z.i r :.>.c.:.i ) >.j l r x.K.x.i.^ M.M.%.$.;.W L.P.I.p.*.Q U.*.l.",
"p W E Q R N.G.! ! ;.M.q.q.g.q.d.y x d./ j L :.j c / y g.d.r i Z.o.Y.q.i.P P P P *.-.y.I.%.R l.t.Q U.",
"z.Q &.Q &.k.q.P L.#.z.-.f.^ f.Y #.^ w.T.L y ~ R.^ i.~ P x.^ #.x.I u f.i T W L.f.l.W &.Q l.&.t.B.Q *.",
"z.Q E E l.*.W D.G.W E.! $.q.L g.f.:.o.o.;.N.G.j L f.( P W.d.#.:.Z.>.y q.x.%.W W W *.*.Q.Y l.B.E B.&.",
"s N.*.Q &.y.N.T P.R !.-.G.P i.Z.w.j P.D.P P.:.q.f.k.T.~ ~.L @.j #.^.$.f D.;./.l.W r.Q (.(.l.W B.t.Q ",
"f t.U.Q W *.P.r.E k.P G.;.R l.)._.D.$.E M.-.^ !.:.~ Y P g i.-.T q.P.t.N.q.$.E k.-.-.*.Q l.l.U.*.*.*.",
"z.Q Q U.R E T I.r.t.W r.l.N.k.E z.`.P.$.N.f.f.@.x.!.^ f.q.F.E '.].h E r.Q.I.W l.D.(.Q Q *.&.t.Q *.[.",
"/.*.Q E W &.r.E R *.R &.y.E r.W g Y q.I E T y.! p.l.p.!.#.R k.{.~.I W }.p.L.R &.*.&.l.B.t.t.*.t.*.|.",
"d l.U.t.t.N.r.t.r.l.y.#.-.Q R }.Q *.r.y.x.;.P g W y.~ Y p.&.y.N.&.N.Y ;.E Q ;.t.W &.k.U.*.l.*.B.E [.",
"/.U.U.l.*.l.Q *.&.Q l.N.Q E W R &.y.k.R P.T  XP &.F.g /.W y.r.$.%.P }.~ &.L.T t.Q t.*.*.U.t.*.W &.B.",
"}.t.|.B.t.l.r.E r.Q r.R l.N.Q R W R &.W k.;.D.E r.L.Q.r.r.y.&.D.L.W l.u.r.&.%.U.t.l.B.B.*.l.&.*.B.Q ",
".XB.B.U.Q Q Q t.Q Q &.r.W &.Q W N.N.N.*.r.k.R &.W }.G.r.R N.N.E l.U.W *.Q E l.l.|.U.&.U.B.W &.U.B.|.",
"}.|.[.t.|.l.&.*.&.&.t.B.&.r.l.N.N.&.W &.r.y.r.R r.E @.E N.E Q N.N.l.&.k.*.E Q &.|.B.Q t.U.l.B.B.U.l.",
"}.U.[.U.[.B.l.t.U.|.B.t.&.t.Q t.z.E Q Q *.W *.l.W l.B.l.&.R &.*.|.t.*.E l.t.t.t.E U.|.B.B.t.U.E B.XX",
"/.B.B.[.B.[.B.t.B.B.U.l.Q t.Q &.E *.R ;.Q B.*.L.y.*.Q t.Q #.*.t.R &.Q U.l.*.B.t.|.B.|.B.[.|.U.|.|.oX",
"}.|.W B.t.t.B.t.[.[.B.l.U.E Q [.l.B.E *.*.U.I.U.W N.U.r.r.L.t.*.&.U.B.B.t.&.R U.t.U.|.B.[.|.[.[.[.XX",
";.|.B.*.&.*.B.B.*.l.l.*.Q Q *.&.W Q *.&.&.W B.U.U.l.*.*.U.R l.*.N.|.*.|.*.W U.U.Q U.U.U.[.|.B.[.[.|.",
";.|.U.B.|.XXl.*.B.|.Q &.*.l.U.|.*.Q l.W t.Q *.U.t.|.t.Q I.x.U.t.B.XXt.|.t.U.B.B.U.U.U.U.|.|.U.|.[.XX",
"/.|.XXXX|.[.|.XX|.|.U.Q B.t.[.U.l.*.B.U.B.t.*.*.Q *.t.*.&.t.*.Q [.[.*.t.U.t.t.U.l.*.[.U.|.XXt.XX[.XX",
"/.[.oX|.[.U.|.|.U.|.t.t.[.*.|.Q U.U.t.*.|.U.U.|.*.t.t.B.U.U.t.t.XXt.U.B.U.U.B.t.U.[.|.t.B.XXXXoXXXoX",
"}.XXXXXXXXXXXXoXB.[.|.[.t.U.&.*.|.B.B.t.B.t.Q *.[.|.B.&.*.[.t.B.|.|.U.|.XXXXt.[.XX|.|.t.|.XXXXXXB.[.",
";.XXXXXXoX|.|.XXU.[.|.|.Q B.U.|.t.t.|.t.B.*.*.*.|.U.Q [.B.*.[.|.U.t.U.[.|.[.B.|.[.XXXXU.B.XXXXXXXX[.",
"}.oXXX|.oXU.[.XX|.[.XXl.*.|.[.B.t.|.t.B.B.B.*.XXXX[.B.U.l.U.|.[.Q t.XX*.Q U.|.[.[.[.|.B.B.oXoXoXoXoX",
";.XXB.oX[.|.|.[.B.B.l.&.XXXXl.|.|.U.t.Q B.[.B.XX[.XX[.|.B.B.|.|.|.[.B.E *.t.|.XXXXoX[.|.[.XXXXoXXX|.",
"}.[.B.[.|.B.|.XXXXQ Q [.|.t.B.B.t.t.|.*.[.|.t.B.[.|.|.U.XXB.*.[.oX[.t.l.XX|.[.XXXXXXXXXXoXXX|.XXoXoX",
";.XX[.|.XX[.XXoXU.t.|.XXB.|.t.|.|.|.|.U.B.XX[.|.XXXXXX[.|.&.U.XX[.t.U.B.XX[.XX[.oXoXoXXXoX|.oXoXoXoX",
";.XX|.XXoXoXXX|.B.[.XXXX|.XX[.[.XX|.*.|.*.B.|.B.B.|.B.B.[.[.U.B.[.|.t.XX[.B.B.[.oXoXoX[.oXoXoXXXoXoX",
";.oXXXoXoX[.XXoXoXoXt.oXXXXXoXB.|.B.B.[.|.[.XXU.U.XXXXXX[.|.|.B.oXQ U.XX[.[.|.XXoXoXXXoXoXoXoXoXoXoX",
";.oXXXoXoXXXXXoXoXXX|.[.oX[.XXXX|.[.*.U.B.B.U.B.[.B.[.XX[.|.XXoXB.|.XXXXXX[.[.[.|.XXoXoXXXoXoXoXoXoX",
";.oXoXoXoX[.[.oXXXXX[.|.B.XXXXt.*.[.U.|.|.XX|.B.XX|.U.oXXX|.oX[.XX[.XXoXXXXXoXoXU.*.XXoXXXoXXXoXoXoX",
"/.oXoXoXoX|.XXXXXXXXoX|.oXoXoXXXXXoX[.[.t.|.|.|.[.XXXXoXXXXX[.|.XX[.oXoXoXXXXXoXXX|.oXXXXXoXXXoXoXoX",
"}.oXoXoXXXXXXXoXoX[.[.XX[.XXoXoXXX[.[.B.|.|.XX|.[.[.oXXX[.XX[.XX[.|.oXoXoXXXXXoXoX[.XXoXoXoXXXoXoXoX",
"}.XXXX[.oXoXoXoXoX[.[.oX[.oXoX[.oXU.XXXXoXoXoX[.t.XX|.oXoXXXoXoXoXXXXXoXoXXXXXoXoXoXoXoXoXXXXXoXoXoX",
";.XXoXoXXXXXoXoXoX|.oX|.[.|.oXXX[.XXoXXX|.oXt.*.XX|.[.XXXXoXXXoXoX[.oXXXXXoXoXoXoXoXoXoXoXoXoX|.t.oX",
";.oXoXoXoXoXoXoXoXoXoXoXXXXX[.oXoXoXoXoX|.[.*.*.oXoXoXoX[.oXXXoXoX[.oXoXoXoXXXoXoXoXoXoX[.oX[.*.t.oX",
";.oXoXoXoXoXoXoXoXoXoXXXXX[.XXoXoXoXoXXXXX*.t.[.oXB.XXXXoXoXoXoXoX[.XXXXoXXXoXoXoXoXoXoXoXXXt.U.oXoX",
";.oXoXoXoXoXoXoXoXoXoXoXoXoXoXoXoXoXXXXX*.U.[.oXoXoXoXoXoXoX[.oXXXoXoXXXoXoXoXoXoXoXoXoXoX*.B.XXoXoX",
";.oXoXoXoXoXoXoXoX|.oXoXoXoXoXoXoXoXXXXXt.oXoXoXXXXXoXoXoXoXoXoXoXoXoXoXoXoXoXoXoXoXoXoXoXt.oXoXoXoX",
";.oXoXoXoXoXoXoXoXoXoXoXoXoXXXoXoXoXoXoXXXoXXXXXXXoXoXoXoXoXoXoXXXoXoXoXoXoXoXoXoXoXoXoXoXoXoXoXoXoX",
";.oXoXoXoXoXoXoXoXoXoXoXoXoXoXXXoXXXoXoXoXoXoXXXoXoXoXoXoXoXoXoXXXoXoXoXXXoXoXoXoXoXoXoXoXoXoXoXoXoX",
";.oXoXoX[.oXoXoXoXoXoXoXoXoXXXXXoXoXoXoXXXoXoXoXoXoXoXoXoX[.oXoXoXoXoXoXoXoXoXoXoXoXoXoXoXoXoXoXoXoX",
";.oXoXXX*.oXoXoXoXoXoXoXoXoXoXoXoXoXoXXXXXoXoXoXoXoXoXoXXX*.oXoXoXoXoXoXoXoXoXoXoXoXoXXXoXoXoXoXoXoX",
";.oXoXoXXXoXoXoXoXoXoXoXoXoXoX[.oXoXoXoXoXXXoXoXoXoXoXoXoXXXXXoXoXXXoXoXoXoXoXoXoXoXoXoXoXoXoXoXoXoX"
};
